<?xml version="1.0" encoding="utf-8"?>
<!-- Generator: Adobe Illustrator 21.1.0, SVG Export Plug-In . SVG Version: 6.00 Build 0)  -->
<svg version="1.1" id="图层_1" xmlns="http://www.w3.org/2000/svg" xmlns:xlink="http://www.w3.org/1999/xlink" x="0px" y="0px"
	 viewBox="0 0 556 133" style="enable-background:new 0 0 556 133;" xml:space="preserve">
<style type="text/css">
	.st0{font-family:'ArialMT';}
	.st1{font-size:8.5728px;}
	.st2{font-size:5.1437px;}
</style>
<g>
	<polygon points="101.568,35.847 85.024,35.847 85.024,35.459 85.024,35.07 102.129,35.07 101.849,35.459 	"/>
	<text transform="matrix(1.0545 0 0 1 77.8209 37.2447)" class="st0 st1">N</text>
	<polygon points="74.667,53.009 79.11,39.666 79.501,39.783 79.892,39.9 75.447,53.247 74.967,53.398 	"/>
	<polygon points="77.457,52.376 81.456,40.368 81.847,40.485 82.238,40.602 78.239,52.611 77.848,52.493 	"/>
	<polygon points="55.278,53.009 74.667,53.009 74.967,53.398 74.835,53.787 55.296,53.787 55.055,53.398 	"/>
	<polygon points="44.333,36.969 55.278,53.009 55.055,53.398 54.577,53.413 43.873,37.725 44.103,37.347 	"/>
	<polygon points="23.95,36.002 44.333,36.969 44.103,37.347 43.873,37.725 24.432,36.804 24.191,36.403 	"/>
	<polygon points="25.657,38.419 42.743,39.229 42.722,39.617 42.702,40.006 25.616,39.195 25.636,38.807 	"/>
	<polygon points="24.432,36.804 16.997,50.199 16.635,50.018 16.272,49.837 23.95,36.002 24.191,36.403 	"/>
	<text transform="matrix(1.0545 0 0 1 11.11 56.1353)" class="st0 st1">N</text>
	<polygon points="23.956,70.782 16.564,58.863 16.917,58.666 17.27,58.469 24.425,70.004 24.191,70.393 	"/>
	<polygon points="25.245,68.257 18.684,57.68 19.037,57.483 19.391,57.286 25.951,67.863 25.598,68.06 	"/>
	<polygon points="24.425,70.004 44.858,70.004 45.099,70.393 45.34,70.782 23.956,70.782 24.191,70.393 	"/>
	<polygon points="43.293,67.871 51.829,53.301 52.187,53.489 52.546,53.678 44.01,68.249 43.651,68.06 	"/>
	<polygon points="44.858,70.004 54.577,53.413 55.055,53.398 55.296,53.787 45.34,70.782 45.099,70.393 	"/>
	<polygon points="75.447,53.247 88.792,62.387 88.552,62.702 88.312,63.017 74.835,53.787 74.967,53.398 	"/>
	<text transform="matrix(1.0545 0 0 1 89.5162 67.6666)" class="st0 st1">O</text>
	<polygon points="108.972,52.843 97.494,62.367 97.224,62.074 96.954,61.781 108.332,52.341 108.818,52.454 	"/>
	<polygon points="109.098,52.065 128.507,52.065 128.73,52.454 128.489,52.843 108.972,52.843 108.818,52.454 	"/>
	<polygon points="128.507,52.065 139.459,36.014 139.682,36.403 139.905,36.792 129.208,52.469 128.73,52.454 	"/>
	<polygon points="139.459,36.014 158.821,36.014 158.598,36.403 158.375,36.792 139.905,36.792 139.682,36.403 	"/>
	<polygon points="141.02,38.347 157.26,38.347 157.26,38.736 157.26,39.125 141.02,39.125 141.02,38.736 	"/>
	<polygon points="158.821,36.014 169.78,52.075 169.55,52.454 169.072,52.469 158.375,36.792 158.598,36.403 	"/>
	<polygon points="169.78,52.075 186.141,52.814 186.122,53.202 186.102,53.591 169.785,52.854 169.55,52.454 	"/>
	<text transform="matrix(1.0545 0 0 1 187.0787 55.3853)" class="st0 st1">O</text>
	<polygon points="208.379,63.284 194.595,56.022 194.794,55.683 194.993,55.343 208.379,62.395 208.379,62.84 	"/>
	<polygon points="208.379,62.395 226.363,52.92 226.3,53.398 226.237,53.876 208.379,63.284 208.379,62.84 	"/>
	<polygon points="226.363,52.92 239.423,64.577 239.142,64.86 238.861,65.143 226.237,53.876 226.3,53.398 	"/>
	<text transform="matrix(1.0545 0 0 1 240.1022 70.2911)" class="st0 st1">N</text>
	<text transform="matrix(1.0545 0 0 1 240.1022 77.1661)" class="st0 st1">H</text>
	<polygon points="261.196,53.877 247.581,65.353 247.309,65.062 247.037,64.772 261.097,52.919 261.146,53.398 	"/>
	<polygon points="261.097,52.919 278.068,62.386 278.072,62.84 278.076,63.293 261.196,53.877 261.146,53.398 	"/>
	<polygon points="278.068,62.386 291.695,54.489 291.909,54.82 292.123,55.152 278.076,63.293 278.072,62.84 	"/>
	<text transform="matrix(1.0545 0 0 1 292.8678 54.2369)" class="st0 st1">N</text>
	<text transform="matrix(1.0545 0 0 1 299.399 54.2369)" class="st0 st1">H</text>
	<text transform="matrix(1.0545 0 0 1 305.9225 56.5338)" class="st0 st2">2</text>
	<polygon points="224.692,54.049 223.894,38.916 224.304,38.897 224.713,38.877 225.511,54.01 225.102,54.029 	"/>
	<polygon points="227.183,54.571 226.351,38.8 226.761,38.78 227.17,38.761 228.002,54.532 227.592,54.551 	"/>
	<text transform="matrix(1.0545 0 0 1 221.9303 36.5025)" class="st0 st1">O</text>
	<polygon points="157.788,66.927 166.324,52.356 166.682,52.545 167.041,52.734 158.505,67.305 158.147,67.116 	"/>
	<polygon points="159.353,69.06 169.072,52.469 169.55,52.454 169.785,52.854 159.835,69.838 159.594,69.449 	"/>
	<polygon points="138.927,69.06 159.353,69.06 159.594,69.449 159.835,69.838 138.445,69.838 138.686,69.449 	"/>
	<polygon points="131.956,52.356 140.492,66.927 140.134,67.116 139.775,67.305 131.239,52.734 131.598,52.545 	"/>
	<polygon points="129.208,52.469 138.927,69.06 138.686,69.449 138.445,69.838 128.489,52.843 128.73,52.454 	"/>
	<polygon points="102.129,35.07 109.098,52.065 108.818,52.454 108.332,52.341 101.568,35.847 101.849,35.459 	"/>
	<polygon points="100.548,37.651 106.282,51.634 105.9,51.775 105.518,51.916 99.784,37.932 100.166,37.792 	"/>
	<polygon points="482.876,19.711 493.434,36.4 493.192,36.773 492.719,36.779 482.412,20.489 482.644,20.1 	"/>
	<polygon points="493.434,36.4 517.972,38.102 517.942,38.49 517.912,38.878 493.423,37.178 493.192,36.773 	"/>
	<text transform="matrix(1.0545 0 0 1 518.899 40.5572)" class="st0 st1">N</text>
	<text transform="matrix(1.0545 0 0 1 525.4303 40.5572)" class="st0 st1">H</text>
	<text transform="matrix(1.0545 0 0 1 531.9615 42.8541)" class="st0 st2">2</text>
	<polygon points="481.52,50.969 489.991,36.623 490.349,36.813 490.707,37.003 482.235,51.349 481.878,51.159 	"/>
	<polygon points="483.102,53.064 492.719,36.779 493.192,36.773 493.423,37.178 483.592,53.827 483.347,53.446 	"/>
	<polygon points="463.18,53.716 483.102,53.064 483.347,53.446 483.592,53.827 463.19,54.494 462.953,54.112 	"/>
	<polygon points="463.19,54.494 455.491,66.661 455.14,66.461 454.788,66.261 462.475,54.112 462.953,54.112 	"/>
	<text transform="matrix(1.0545 0 0 1 449.2819 72.5645)" class="st0 st1">N</text>
	<polygon points="432.255,69.737 448.335,70.263 448.32,70.652 448.306,71.04 432.246,70.515 432.01,70.118 	"/>
	<polygon points="422.634,53.446 432.255,69.737 432.01,70.118 431.54,70.118 421.924,53.834 422.165,53.446 	"/>
	<polygon points="402.003,53.057 421.924,53.057 422.165,53.446 421.924,53.834 401.538,53.834 401.77,53.446 	"/>
	<polygon points="394.442,36.573 403.515,50.913 403.163,51.113 402.812,51.313 393.739,36.973 394.091,36.773 	"/>
	<polygon points="391.7,36.773 402.003,53.057 401.77,53.446 401.538,53.834 391,37.178 391.222,36.773 	"/>
	<polygon points="390.98,36.4 401.538,19.711 401.77,20.1 402.003,20.489 391.7,36.773 391.222,36.773 	"/>
	<polygon points="401.538,19.711 422.405,19.711 422.165,20.1 421.924,20.489 402.003,20.489 401.77,20.1 	"/>
	<polygon points="403.163,22.044 420.723,22.044 420.723,22.433 420.723,22.822 403.163,22.822 403.163,22.433 	"/>
	<polygon points="422.405,19.711 432.255,36.392 432.01,36.773 431.54,36.773 421.924,20.489 422.165,20.1 	"/>
	<polygon points="432.255,36.392 452.172,37.043 452.404,37.44 452.167,37.821 432.246,37.169 432.01,36.773 	"/>
	<polygon points="452.172,37.043 462.716,19.711 462.953,20.1 463.19,20.489 452.88,37.436 452.404,37.44 	"/>
	<polygon points="462.716,19.711 482.876,19.711 482.644,20.1 482.412,20.489 463.19,20.489 462.953,20.1 	"/>
	<polygon points="464.374,22.044 481.251,22.044 481.251,22.433 481.251,22.822 464.374,22.822 464.374,22.433 	"/>
	<polygon points="452.88,37.436 463.18,53.716 462.953,54.112 462.475,54.112 452.167,37.821 452.404,37.44 	"/>
	<polygon points="451.334,39.527 460.436,53.912 460.084,54.112 459.732,54.312 450.631,39.927 450.983,39.727 	"/>
	<polygon points="421.924,53.057 431.54,36.773 432.01,36.773 432.246,37.169 422.634,53.446 422.165,53.446 	"/>
	<polygon points="424.626,53.256 433.066,38.963 433.424,39.153 433.781,39.343 425.342,53.635 424.984,53.446 	"/>
	<polygon points="391,37.178 366.502,38.878 366.472,38.49 366.442,38.102 390.98,36.4 391.222,36.773 	"/>
	<text transform="matrix(1.0545 0 0 1 349.7272 40.5572)" class="st0 st1">H</text>
	<text transform="matrix(1.0545 0 0 1 356.2428 42.8541)" class="st0 st2">2</text>
	<text transform="matrix(1.0545 0 0 1 359.2662 40.5572)" class="st0 st1">N</text>
	<polygon points="421.924,86.402 431.54,70.118 432.01,70.118 432.246,70.515 422.632,86.795 422.165,86.791 	"/>
	<polygon points="422.632,86.795 432.48,104.139 432.01,104.131 431.54,104.123 421.92,87.18 422.165,86.791 	"/>
	<polygon points="420.397,117.608 428.836,103.889 429.19,104.085 429.544,104.281 421.106,118 420.752,117.804 	"/>
	<polygon points="421.929,119.748 431.54,104.123 432.01,104.131 432.48,104.139 422.4,120.526 422.165,120.137 	"/>
	<polygon points="402.003,119.748 421.929,119.748 422.165,120.137 422.4,120.526 401.538,120.526 401.77,120.137 	"/>
	<polygon points="394.442,103.264 403.515,117.604 403.163,117.804 402.812,118.004 393.739,103.664 394.091,103.464 	"/>
	<polygon points="391.7,103.464 402.003,119.748 401.77,120.137 401.538,120.526 390.744,103.464 391.222,103.464 	"/>
	<polygon points="390.744,103.464 401.538,86.402 401.77,86.791 402.003,87.18 391.7,103.464 391.222,103.464 	"/>
	<polygon points="401.538,86.402 421.924,86.402 422.165,86.791 421.92,87.18 402.003,87.18 401.77,86.791 	"/>
	<polygon points="403.163,88.735 420.695,88.735 420.695,89.124 420.695,89.513 403.163,89.513 403.163,89.124 	"/>
	<polygon points="462.009,87.172 454.71,75.305 455.064,75.109 455.418,74.913 462.49,86.41 462.25,86.791 	"/>
	<polygon points="462.49,86.41 482.658,87.07 482.644,87.458 482.63,87.847 462.009,87.172 462.25,86.791 	"/>
</g>
</svg>
