<?xml version="1.0" encoding="utf-8"?>
<!-- Generator: Adobe Illustrator 21.1.0, SVG Export Plug-In . SVG Version: 6.00 Build 0)  -->
<svg version="1.1" id="图层_1" xmlns="http://www.w3.org/2000/svg" xmlns:xlink="http://www.w3.org/1999/xlink" x="0px" y="0px"
	 viewBox="0 0 269 112" style="enable-background:new 0 0 269 112;" xml:space="preserve">
<style type="text/css">
	.st0{font-family:'ArialMT';}
	.st1{font-size:8.5728px;}
	.st2{font-size:5.1437px;}
</style>
<g>
	<polygon points="56.336,36.726 74.038,46.519 74.038,46.969 73.628,47.192 56.319,37.617 56.328,37.172 	"/>
	<polygon points="74.448,47.192 74.448,65.64 74.038,65.863 73.628,66.087 73.628,47.192 74.038,46.969 	"/>
	<polygon points="76.704,64.188 91.955,72.624 91.748,72.96 91.542,73.296 76.291,64.859 76.498,64.523 	"/>
	<polygon points="74.448,65.64 91.748,75.211 91.748,75.661 91.748,76.111 73.628,66.087 74.038,65.863 	"/>
	<polygon points="91.748,75.211 109.048,65.64 109.458,65.863 109.502,66.289 91.748,76.111 91.748,75.661 	"/>
	<polygon points="109.868,65.587 128.476,71.695 128.645,72.162 128.813,72.628 109.502,66.289 109.458,65.863 	"/>
	<polygon points="127.29,69.149 136.458,55.818 136.801,56.03 137.145,56.242 127.977,69.574 127.634,69.361 	"/>
	<polygon points="128.476,71.695 139.228,56.06 139.713,56.066 139.93,56.463 128.813,72.628 128.645,72.162 	"/>
	<polygon points="139.948,55.685 160.145,56.369 160.375,56.766 160.131,57.147 139.93,56.463 139.713,56.066 	"/>
	<polygon points="160.145,56.369 170.471,39.582 170.706,39.971 170.942,40.36 160.848,56.769 160.375,56.766 	"/>
	<polygon points="170.471,39.582 190.866,39.582 190.63,39.971 190.395,40.36 170.942,40.36 170.706,39.971 	"/>
	<polygon points="172.119,41.915 189.218,41.915 189.218,42.304 189.218,42.692 172.119,42.692 172.119,42.304 	"/>
	<polygon points="190.866,39.582 201.197,56.377 200.961,56.766 200.484,56.762 190.395,40.36 190.63,39.971 	"/>
	<polygon points="201.197,56.377 221.09,56.377 220.885,56.766 220.68,57.155 201.192,57.155 200.961,56.766 	"/>
	<polygon points="221.09,56.377 231.076,69.004 230.748,69.237 230.42,69.471 220.68,57.155 220.885,56.766 	"/>
	<text transform="matrix(1.0545 0 0 1 231.0469 75.3418)" class="st0 st1">N</text>
	<text transform="matrix(1.0545 0 0 1 237.5781 75.3418)" class="st0 st1">H</text>
	<text transform="matrix(1.0545 0 0 1 244.0938 77.6387)" class="st0 st2">2</text>
	<polygon points="219.08,56.556 228.393,42.757 228.738,42.966 229.083,43.176 219.77,56.976 219.425,56.766 	"/>
	<polygon points="221.328,57.553 230.465,44.014 230.81,44.224 231.156,44.433 222.019,57.972 221.673,57.762 	"/>
	<text transform="matrix(1.0545 0 0 1 229.5625 41.0601)" class="st0 st1">N</text>
	<text transform="matrix(1.0545 0 0 1 236.1016 41.0601)" class="st0 st1">H</text>
	<polygon points="188.898,70.326 197.748,56.538 198.098,56.741 198.448,56.943 189.598,70.731 189.248,70.529 	"/>
	<polygon points="190.4,72.473 200.484,56.762 200.961,56.766 201.192,57.155 190.861,73.25 190.63,72.861 	"/>
	<polygon points="170.208,72.473 190.4,72.473 190.63,72.861 190.861,73.25 169.729,73.25 169.968,72.861 	"/>
	<polygon points="163.569,56.593 171.761,70.337 171.404,70.529 171.047,70.72 162.855,56.976 163.212,56.784 	"/>
	<polygon points="160.848,56.769 170.208,72.473 169.968,72.861 169.729,73.25 160.131,57.147 160.375,56.766 	"/>
	<polygon points="139.228,56.06 130.363,42.399 130.712,42.195 131.062,41.992 139.948,55.685 139.713,56.066 	"/>
	<text transform="matrix(1.0545 0 0 1 115.2422 39.6538)" class="st0 st1">H</text>
	<text transform="matrix(1.0545 0 0 1 121.7656 41.9507)" class="st0 st2">2</text>
	<text transform="matrix(1.0545 0 0 1 124.7891 39.6538)" class="st0 st1">N</text>
	<polygon points="106.588,64.523 106.588,48.309 106.998,48.309 107.408,48.309 107.408,64.523 106.998,64.523 	"/>
	<polygon points="109.048,65.64 109.048,47.192 109.458,46.969 109.868,46.745 109.868,65.587 109.458,65.863 	"/>
	<polygon points="91.748,36.721 109.868,46.745 109.458,46.969 109.048,47.192 91.748,37.622 91.748,37.172 	"/>
	<polygon points="74.038,46.519 91.748,36.721 91.748,37.172 91.748,37.622 74.448,47.192 74.038,46.969 	"/>
	<polygon points="76.291,47.973 91.542,39.536 91.748,39.872 91.955,40.208 76.704,48.645 76.498,48.309 	"/>
	<polygon points="56.319,37.617 39.943,45.937 39.749,45.594 39.556,45.251 56.336,36.726 56.328,37.172 	"/>
	<text transform="matrix(1.0545 0 0 1 23 49.4512)" class="st0 st1">H</text>
	<text transform="matrix(1.0545 0 0 1 29.5313 51.7393)" class="st0 st2">2</text>
	<text transform="matrix(1.0545 0 0 1 32.5469 49.4512)" class="st0 st1">N</text>
	<polygon points="54.576,37.8 57.004,21.681 57.41,21.736 57.816,21.791 55.388,37.91 54.982,37.855 	"/>
	<polygon points="57.069,37.751 59.44,22.011 59.846,22.066 60.251,22.121 57.88,37.861 57.475,37.806 	"/>
	<text transform="matrix(1.0545 0 0 1 56.1563 19.3569)" class="st0 st1">N</text>
	<text transform="matrix(1.0545 0 0 1 62.6875 19.3569)" class="st0 st1">H</text>
</g>
</svg>
